<?xml version="1.0" standalone="no"?>
<!DOCTYPE svg PUBLIC "-//W3C//DTD SVG 20010904//EN"
 "http://www.w3.org/TR/2001/REC-SVG-20010904/DTD/svg10.dtd">
<svg version="1.0" xmlns="http://www.w3.org/2000/svg"
 width="1024.000000pt" height="1024.000000pt" viewBox="0 0 1024.000000 1024.000000"
 preserveAspectRatio="xMidYMid meet">

<g transform="translate(0.000000,1024.000000) scale(0.100000,-0.100000)"
fill="#000000" stroke="none">
<path d="M4710 8778 c0 -2 9 -35 20 -73 66 -225 66 -441 1 -629 -43 -123 -153
-306 -275 -456 -34 -41 -201 -214 -372 -385 -318 -318 -403 -416 -554 -645
-128 -195 -228 -435 -266 -635 -22 -120 -30 -443 -14 -588 14 -139 53 -316 90
-417 54 -146 189 -396 295 -545 60 -85 376 -456 438 -515 15 -14 27 -31 27
-37 0 -7 4 -13 9 -13 5 0 -8 53 -29 118 -231 707 -41 1333 481 1590 46 22 118
51 159 62 88 25 310 40 310 21 0 -6 -4 -11 -8 -11 -17 0 -179 -129 -246 -196
-207 -206 -316 -437 -345 -734 -5 -58 -13 -535 -16 -1060 -3 -540 -10 -992
-16 -1040 -17 -146 -85 -317 -181 -462 l-45 -66 35 4 c19 3 89 22 157 44 401
131 696 374 796 656 41 113 48 194 49 502 0 361 -15 332 168 333 70 0 206 4
302 8 168 6 178 8 242 38 202 95 334 329 473 837 19 71 35 136 35 143 0 8 -42
-23 -94 -69 -117 -103 -188 -147 -280 -172 -63 -18 -111 -20 -443 -24 -365 -3
-372 -3 -392 17 -25 25 -25 41 -6 221 19 184 40 244 107 306 73 70 57 67 548
76 755 12 708 10 766 40 149 78 279 261 384 542 37 98 118 366 135 444 l7 33
-88 -71 c-103 -83 -245 -158 -370 -197 l-89 -27 -398 -4 c-299 -3 -402 0 -413
9 -25 21 -15 64 45 191 129 273 169 416 177 638 7 172 -9 296 -57 446 -33 104
-117 294 -129 294 -12 0 -73 -71 -117 -136 -55 -81 -95 -164 -128 -264 -15
-47 -47 -126 -71 -177 -103 -222 -283 -412 -480 -505 -59 -28 -80 -33 -145
-33 -67 0 -80 3 -111 27 -71 54 -85 155 -37 250 12 24 66 99 119 168 178 229
347 491 399 617 65 160 76 220 75 433 0 179 -2 203 -27 291 -50 182 -156 370
-290 514 -78 85 -317 290 -317 273z"/>
</g>
</svg>
